<?xml version="1.0" standalone="no"?>
<!DOCTYPE svg PUBLIC "-//W3C//DTD SVG 20010904//EN"
 "http://www.w3.org/TR/2001/REC-SVG-20010904/DTD/svg10.dtd">
<svg version="1.0" xmlns="http://www.w3.org/2000/svg"
 width="700.000000pt" height="700.000000pt" viewBox="0 0 700.000000 700.000000"
 preserveAspectRatio="xMidYMid meet">
<metadata>
Created by potrace 1.14, written by Peter Selinger 2001-2017
</metadata>
<g transform="translate(0.000000,700.000000) scale(0.100000,-0.100000)"
fill="#000000" stroke="none">
<path d="M3465 6994 c-400 -24 -565 -41 -825 -85 -1350 -229 -2162 -913 -2327
-1959 -16 -103 -18 -190 -18 -860 0 -723 1 -748 21 -840 88 -393 347 -628 871
-791 54 -17 226 -64 383 -105 784 -207 883 -273 1347 -899 367 -495 436 -586
539 -710 187 -223 382 -409 550 -523 259 -176 558 -254 792 -206 196 40 369
149 588 368 265 267 486 591 720 1058 314 628 531 1308 589 1848 18 161 21
1382 5 1540 -39 376 -185 730 -439 1065 -105 139 -341 372 -486 481 -442 331
-950 527 -1550 600 -124 15 -617 27 -760 18z m-175 -1469 c198 -30 357 -93
440 -173 78 -76 79 -128 2 -202 -227 -218 -882 -257 -1235 -72 -80 41 -153
109 -162 152 -18 84 104 186 299 250 173 57 455 76 656 45z m-2618 -1651 c186
-143 408 -227 1008 -384 478 -125 689 -227 877 -423 118 -124 218 -251 476
-602 309 -422 468 -617 646 -795 340 -340 609 -482 936 -497 112 -5 142 -3
213 15 497 126 1070 854 1498 1907 40 99 73 174 74 166 1 -40 -47 -288 -86
-442 -164 -657 -504 -1415 -856 -1911 -214 -303 -442 -513 -636 -586 -56 -21
-84 -25 -167 -25 -257 2 -496 133 -790 434 -169 173 -298 334 -599 743 -384
522 -535 694 -715 815 -216 144 -393 211 -914 347 -295 77 -499 141 -615 195
-231 106 -359 245 -414 446 -18 69 -21 113 -26 372 -5 336 -17 306 90 225z"/>
</g>
</svg>
