<svg xmlns="http://www.w3.org/2000/svg" viewBox="0 0 24 24"><path fill="#303C42" d="M13 0C1.865 0 1 6.123 1 8v4c0 2.817 2.303 3.404 4.335 3.922 1.241.317 2.524.644 3.311 1.432.57.569 1.152 1.368 1.768 2.214C11.927 21.646 13.641 24 16 24c3.413 0 7-8.327 7-12V8c0-3.847-3.823-8-10-8z"/><path fill="#C62828" d="M13 1c5.56 0 9 3.633 9 7 0 3.453-3.424 11-6 11-1.85 0-3.405-2.136-4.778-4.02-.64-.879-1.243-1.709-1.868-2.334-.981-.98-2.4-1.343-3.772-1.692C3.362 10.387 2 9.94 2 8c0-2.104 1.072-7 11-7z"/><path fill="#FFEBEE" d="M16 23c-1.85 0-3.405-2.136-4.778-4.02-.64-.879-1.243-1.709-1.868-2.334-.981-.98-2.4-1.343-3.772-1.692C3.362 14.387 2 13.94 2 12v-1.52c.859.796 2.138 1.137 3.335 1.442 1.241.317 2.524.644 3.311 1.432.57.569 1.152 1.368 1.768 2.214C11.927 17.646 13.641 20 16 20c2.289 0 4.65-3.744 5.962-7.32C21.582 16.353 18.418 23 16 23z"/><path d="M11.222 18.98C12.595 20.863 14.15 23 16 23c2.418 0 5.582-6.648 5.962-10.32-.241.657-.518 1.318-.822 1.961-1.078 3.587-3.493 7.859-5.432 7.859-1.85 0-3.405-2.136-4.778-4.02" opacity=".1"/><path fill="#303C42" d="M10.5 8c1.995 0 3.5-.86 3.5-2s-1.505-2-3.5-2S7 4.86 7 6s1.505 2 3.5 2z"/><path fill="#FFF" d="M10.5 5c1.526 0 2.5.592 2.5 1s-.974 1-2.5 1S8 6.408 8 6s.974-1 2.5-1z"/><path fill="#303C42" d="M9 10.5a.5.5 0 00.5.5c1.132 0 3.479-.57 5.749-1.122C17.026 9.446 18.864 9 19.5 9a.5.5 0 100-1c-.756 0-2.485.42-4.488.907C12.902 9.419 10.512 10 9.5 10a.5.5 0 00-.5.5zM19 11c-1.142 0-2.65.432-4.107.85-1.166.334-2.267.65-2.893.65a.5.5 0 100 1c.767 0 1.88-.32 3.169-.689C16.495 12.431 17.999 12 19 12a.5.5 0 100-1z"/><path fill="#FFF" d="M12.41 14.98c-.64-.879-1.244-1.709-1.869-2.334-.98-.98-2.4-1.343-3.771-1.692C4.549 10.387 3.187 9.94 3.187 8c0-2.054 1.046-6.755 10.33-6.979C13.345 1.014 13.177 1 13 1 3.072 1 2 5.896 2 8c0 1.941 1.361 2.387 3.582 2.954 1.372.35 2.79.712 3.772 1.692.625.625 1.229 1.455 1.868 2.333C12.595 16.864 14.15 19 16 19c.167 0 .338-.035.511-.095-1.557-.433-2.9-2.275-4.101-3.926z" opacity=".2"/><linearGradient id="a" x1="1.461" x2="22.676" y1="5.467" y2="15.36" gradientUnits="userSpaceOnUse"><stop offset="0" stop-color="#FFF" stop-opacity=".2"/><stop offset="1" stop-color="#FFF" stop-opacity="0"/></linearGradient><path fill="url(#a)" d="M13 0C1.865 0 1 6.123 1 8v4c0 2.817 2.303 3.404 4.335 3.922 1.241.317 2.524.644 3.311 1.432.57.569 1.152 1.368 1.768 2.214C11.927 21.646 13.641 24 16 24c3.413 0 7-8.327 7-12V8c0-3.847-3.823-8-10-8z"/></svg>